<svg xmlns="http://www.w3.org/2000/svg" xmlns:xlink="http://www.w3.org/1999/xlink" width="89" height="89" viewBox="0 0 89 89">
  <defs>
    <style>
      .cls-1, .cls-3 {
        fill: none;
      }

      .cls-2 {
        clip-path: url(#clip-path);
      }

      .cls-4, .cls-6 {
        fill: #d82591;
      }

      .cls-5, .cls-6 {
        stroke: none;
      }
    </style>
    <clipPath id="clip-path">
      <rect class="cls-1" width="89" height="89"/>
    </clipPath>
  </defs>
  <g id="approach_step3" class="cls-2">
    <g id="Path_29" data-name="Path 29" class="cls-3">
      <path class="cls-5" d="M44.5,0A44.5,44.5,0,1,1,0,44.5,44.5,44.5,0,0,1,44.5,0Z"/>
      <path class="cls-6" d="M 44.5 5 C 39.16533279418945 5 33.99288177490234 6.043685913085938 29.12635040283203 8.10205078125 C 24.42331695556641 10.09127044677734 20.19851684570313 12.94004821777344 16.56928253173828 16.56928253173828 C 12.94004821777344 20.19851684570313 10.09127044677734 24.42331695556641 8.10205078125 29.12635040283203 C 6.043685913085938 33.99288177490234 5 39.16533279418945 5 44.5 C 5 49.83466720581055 6.043685913085938 55.00711822509766 8.10205078125 59.87364959716797 C 10.09127044677734 64.57668304443359 12.94004821777344 68.80148315429688 16.56928253173828 72.43071746826172 C 20.19851684570313 76.05995178222656 24.42331695556641 78.90873718261719 29.12635040283203 80.89794921875 C 33.99288177490234 82.95631408691406 39.16533279418945 84 44.5 84 C 49.83466720581055 84 55.00711822509766 82.95631408691406 59.87364959716797 80.89794921875 C 64.57668304443359 78.90873718261719 68.80148315429688 76.05995178222656 72.43071746826172 72.43071746826172 C 76.05995178222656 68.80148315429688 78.90873718261719 64.57668304443359 80.89794921875 59.87364959716797 C 82.95631408691406 55.00711822509766 84 49.83466720581055 84 44.5 C 84 39.16533279418945 82.95631408691406 33.99288177490234 80.89794921875 29.12635040283203 C 78.90873718261719 24.42331695556641 76.05995178222656 20.19851684570313 72.43071746826172 16.56928253173828 C 68.80148315429688 12.94004821777344 64.57668304443359 10.09127044677734 59.87364959716797 8.10205078125 C 55.00711822509766 6.043685913085938 49.83466720581055 5 44.5 5 M 44.5 0 C 69.07666778564453 0 89 19.92333221435547 89 44.5 C 89 69.07666778564453 69.07666778564453 89 44.5 89 C 19.92333221435547 89 0 69.07666778564453 0 44.5 C 0 19.92333221435547 19.92333221435547 0 44.5 0 Z"/>
    </g>
    <path id="target" class="cls-4" d="M54,23.625H48.678a21.991,21.991,0,0,0-18.3-18.3V0h-6.75V5.322a21.991,21.991,0,0,0-18.3,18.3H0v6.75H5.322a21.991,21.991,0,0,0,18.3,18.3V54h6.75V48.678a21.991,21.991,0,0,0,18.3-18.3H54Zm-12.191,0H36.548a10.148,10.148,0,0,0-6.173-6.173V12.191A15.239,15.239,0,0,1,41.81,23.625ZM27,30.375A3.375,3.375,0,1,1,30.375,27,3.374,3.374,0,0,1,27,30.375ZM23.625,12.191v5.262a10.148,10.148,0,0,0-6.173,6.173H12.191A15.239,15.239,0,0,1,23.625,12.191ZM12.191,30.375h5.262a10.148,10.148,0,0,0,6.173,6.173V41.81A15.239,15.239,0,0,1,12.191,30.375ZM30.375,41.809V36.548a10.148,10.148,0,0,0,6.173-6.173H41.81A15.239,15.239,0,0,1,30.375,41.81Z" transform="translate(18 18)"/>
  </g>
</svg>
