<svg xmlns="http://www.w3.org/2000/svg" xmlns:xlink="http://www.w3.org/1999/xlink" width="89" height="89" viewBox="0 0 89 89">
  <defs>
    <style>
      .cls-1, .cls-3 {
        fill: none;
      }

      .cls-2 {
        clip-path: url(#clip-path);
      }

      .cls-3 {
        stroke: #d82591;
        stroke-width: 5px;
      }

      .cls-4 {
        fill: #d82591;
      }

      .cls-5 {
        stroke: none;
      }
    </style>
    <clipPath id="clip-path">
      <rect class="cls-1" width="89" height="89"/>
    </clipPath>
  </defs>
  <g id="approach_step2" class="cls-2">
    <g id="Ellipse_1" data-name="Ellipse 1" class="cls-3">
      <circle class="cls-5" cx="44.5" cy="44.5" r="44.5"/>
      <circle class="cls-1" cx="44.5" cy="44.5" r="42"/>
    </g>
    <g id="man-woman" transform="translate(22 20)">
      <path id="Path_25" data-name="Path 25" class="cls-4" d="M11.188,4.594A4.594,4.594,0,1,1,6.594,0,4.593,4.593,0,0,1,11.188,4.594Z" transform="translate(1.063)"/>
      <path id="Path_26" data-name="Path 26" class="cls-4" d="M29.188,4.594A4.594,4.594,0,1,1,24.594,0,4.593,4.593,0,0,1,29.188,4.594Z" transform="translate(10.625)"/>
      <path id="Path_27" data-name="Path 27" class="cls-4" d="M12.25,8H3.063A3.062,3.062,0,0,0,0,11.063V26.375H3.063V44.75H6.891V26.375H8.422V44.75H12.25V26.375h3.063V11.063A3.062,3.062,0,0,0,12.25,8Z" transform="translate(0 4.25)"/>
      <path id="Path_28" data-name="Path 28" class="cls-4" d="M39.218,20.25l2.344-1.7L35.185,8.689A1.531,1.531,0,0,0,33.906,8H21.656a1.531,1.531,0,0,0-1.279.689L14,18.552l2.344,1.7,5.3-6.871,1.841,4.294L17.063,29.438h5.869L23.953,44.75h3.063V29.438h1.531V44.75h3.063l1.021-15.312H38.5L32.083,17.673l1.841-4.294Z" transform="translate(7.437 4.25)"/>
    </g>
  </g>
</svg>
