<svg xmlns="http://www.w3.org/2000/svg" xmlns:xlink="http://www.w3.org/1999/xlink" width="89" height="89" viewBox="0 0 89 89">
  <defs>
    <style>
      .cls-1, .cls-3 {
        fill: none;
      }

      .cls-2 {
        clip-path: url(#clip-path);
      }

      .cls-3 {
        stroke: #d82591;
        stroke-width: 5px;
      }

      .cls-4 {
        fill: #d82591;
      }

      .cls-5 {
        stroke: none;
      }
    </style>
    <clipPath id="clip-path">
      <rect class="cls-1" width="89" height="89"/>
    </clipPath>
  </defs>
  <g id="approach_step1" class="cls-2">
    <g id="Ellipse_1" data-name="Ellipse 1" class="cls-3">
      <circle class="cls-5" cx="44.5" cy="44.5" r="44.5"/>
      <circle class="cls-1" cx="44.5" cy="44.5" r="42"/>
    </g>
    <g id="clipboard" transform="translate(19 14)">
      <path id="Path_23" data-name="Path 23" class="cls-4" d="M48.286,6.857H32.857a6.857,6.857,0,0,0-13.714,0H3.714A1.715,1.715,0,0,0,2,8.571V53.143a1.715,1.715,0,0,0,1.714,1.714H48.286A1.715,1.715,0,0,0,50,53.143V8.571A1.715,1.715,0,0,0,48.286,6.857ZM26,3.429a3.429,3.429,0,1,1-3.429,3.429A3.428,3.428,0,0,1,26,3.429Zm20.571,48H5.429V10.286h6.857v5.143A1.715,1.715,0,0,0,14,17.143H38a1.715,1.715,0,0,0,1.714-1.714V10.286h6.857Z" transform="translate(0)"/>
      <path id="Path_24" data-name="Path 24" class="cls-4" d="M18.581,36.287l-11-12.71,3.134-3.134,7.862,6.147,14.719-13,3.135,3.134Z" transform="translate(3.99 9.704)"/>
    </g>
  </g>
</svg>
