<svg xmlns="http://www.w3.org/2000/svg" xmlns:xlink="http://www.w3.org/1999/xlink" width="40" height="40" viewBox="0 0 40 40"><defs><style>.a,.c{fill:none;}.b{clip-path:url(#a);}.d,.f{fill:#fff;}.e,.f{stroke:none;}</style><clipPath id="a"><rect class="a" width="40" height="40"/></clipPath></defs><g class="b"><g class="c"><path class="e" d="M20,0A20,20,0,1,1,0,20,20,20,0,0,1,20,0Z"/><path class="f" d="M 20 2 C 15.19202041625977 2 10.67182922363281 3.872329711914063 7.272079467773438 7.272079467773438 C 3.872329711914063 10.67182922363281 2 15.19202041625977 2 20 C 2 24.80797958374023 3.872329711914063 29.32817077636719 7.272079467773438 32.72792053222656 C 10.67182922363281 36.12767028808594 15.19202041625977 38 20 38 C 24.80797958374023 38 29.32817077636719 36.12767028808594 32.72792053222656 32.72792053222656 C 36.12767028808594 29.32817077636719 38 24.80797958374023 38 20 C 38 15.19202041625977 36.12767028808594 10.67182922363281 32.72792053222656 7.272079467773438 C 29.32817077636719 3.872329711914063 24.80797958374023 2 20 2 M 20 0 C 31.04570007324219 0 40 8.954299926757813 40 20 C 40 31.04570007324219 31.04570007324219 40 20 40 C 8.954299926757813 40 0 31.04570007324219 0 20 C 0 8.954299926757813 8.954299926757813 0 20 0 Z"/></g><g transform="translate(14.4 13.6)"><path class="d" d="M6.4,0,5.236,1.164,9.642,5.569H0V7.231H9.642L5.236,11.636,6.4,12.8l6.4-6.4Z" transform="translate(0 0)"/></g></g></svg>