<svg xmlns="http://www.w3.org/2000/svg" width="32.001" height="28" viewBox="0 0 32.001 28">
  <path id="contdev_ml" d="M32,13.414C32,7.135,30.163,2.041,27.891,2H25.326A40.734,40.734,0,0,1,10.475,8.367a27.254,27.254,0,0,0-.438,5.047,27.348,27.348,0,0,0,.438,5.047,40.734,40.734,0,0,1,14.851,6.367h2.565C30.163,24.787,32,19.693,32,13.414ZM27.026,23.1a1.286,1.286,0,0,1-.773-.486,6.463,6.463,0,0,1-1.1-1.979,21.091,21.091,0,0,1-1.127-7.223,21.1,21.1,0,0,1,1.127-7.223,6.463,6.463,0,0,1,1.1-1.979,1.286,1.286,0,0,1,.773-.486,1.286,1.286,0,0,1,.773.486,6.463,6.463,0,0,1,1.1,1.979,21.1,21.1,0,0,1,1.127,7.223A21.1,21.1,0,0,1,28.9,20.637a6.463,6.463,0,0,1-1.1,1.979A1.291,1.291,0,0,1,27.026,23.1ZM7.869,13.414a30.651,30.651,0,0,1,.345-4.659,30.188,30.188,0,0,1-4.386.323h-2.1L0,12.037v2.755l1.733,2.959h2.1a30.209,30.209,0,0,1,4.386.323,30.651,30.651,0,0,1-.345-4.659Zm3.636,6.654-4-.766L10.063,29.35a.834.834,0,0,0,1.146.583l3.7-1.483a.853.853,0,0,0,.444-1.221Zm15.521-2.92a.5.5,0,0,1-.3-.187A2.484,2.484,0,0,1,26.3,16.2a8.138,8.138,0,0,1-.434-2.784A8.138,8.138,0,0,1,26.3,10.63a2.5,2.5,0,0,1,.424-.763.331.331,0,0,1,.6,0,2.484,2.484,0,0,1,.424.763,8.134,8.134,0,0,1,.434,2.784,8.138,8.138,0,0,1-.434,2.784,2.5,2.5,0,0,1-.424.763A.5.5,0,0,1,27.026,17.148Z" transform="translate(0.001 -2)" fill="#d82591"/>
</svg>
