<svg id="contdev_mk" xmlns="http://www.w3.org/2000/svg" width="32" height="28.444" viewBox="0 0 32 28.444">
  <path id="Path_35" data-name="Path 35" d="M30.222,3.556H28.444V1.778A1.783,1.783,0,0,0,26.667,0H1.778A1.783,1.783,0,0,0,0,1.778V23.111a1.783,1.783,0,0,0,1.778,1.778H3.556v1.778a1.783,1.783,0,0,0,1.778,1.778H30.222A1.783,1.783,0,0,0,32,26.667V5.333A1.783,1.783,0,0,0,30.222,3.556ZM3.556,5.333V23.111H1.781l0,0V1.78l0,0H26.664l0,0V3.555H5.334A1.783,1.783,0,0,0,3.556,5.332h0Zm26.667,21.33,0,0H5.336l0,0V5.336l0,0H30.219l0,0Z" fill="#d82591"/>
  <path id="Path_36" data-name="Path 36" d="M29.333,10.667A2.667,2.667,0,1,1,26.667,8,2.667,2.667,0,0,1,29.333,10.667Z" transform="translate(-2.667 -0.889)" fill="#d82591"/>
  <path id="Path_37" data-name="Path 37" d="M29.333,26.222H8V22.667L14.222,12l7.111,8.889h1.778l6.222-5.333Z" transform="translate(-0.889 -1.333)" fill="#d82591"/>
</svg>
