<svg xmlns="http://www.w3.org/2000/svg" width="28" height="32" viewBox="0 0 28 32">
  <g id="contdev_va" transform="translate(-2)">
    <path id="Path_32" data-name="Path 32" d="M28.681,7.159a28.385,28.385,0,0,0-2.724-3.116,28.187,28.187,0,0,0-3.116-2.724C21.229.137,20.447,0,20,0H4.5A2.5,2.5,0,0,0,2,2.5v27A2.5,2.5,0,0,0,4.5,32h23A2.5,2.5,0,0,0,30,29.5V10c0-.448-.137-1.23-1.319-2.841h0Zm-4.138-1.7A27.334,27.334,0,0,1,26.811,8H22V3.189a27.334,27.334,0,0,1,2.543,2.268ZM28,29.5a.507.507,0,0,1-.5.5H4.5a.507.507,0,0,1-.5-.5V2.5A.507.507,0,0,1,4.5,2H20V9a1,1,0,0,0,1,1h7Z" fill="#d82591"/>
    <path id="Path_33" data-name="Path 33" d="M8,16H18V26H8Z" fill="#d82591"/>
    <path id="Path_34" data-name="Path 34" d="M18,20l6-4V26l-6-4Z" fill="#d82591"/>
  </g>
</svg>
