<svg xmlns="http://www.w3.org/2000/svg" width="536.03" height="428.972" viewBox="0 0 536.03 428.972">
  <g id="multiindexp_diagram" transform="translate(672.249 -636.85) rotate(90)">
    <path id="Path_92" data-name="Path 92" d="M913.5,613.878a58.314,58.314,0,0,0-94.591-45.7L799.56,548.354a71,71,0,0,0,17.037-40.67l79.327.163a58.381,58.381,0,1,0-.127-11.786l-79.21-.163a70.873,70.873,0,0,0-11.856-33.766l13.813-12.316a58.374,58.374,0,1,0,0-86.042L802.654,349.6a70.913,70.913,0,0,0,14.193-37.081l78.841.151a58.368,58.368,0,1,0,0-11.786l-78.837-.151A71.032,71.032,0,0,0,799.7,259.989l19.277-19.75a58.379,58.379,0,1,0-8.441-8.227l-19.245,19.716a71.3,71.3,0,0,0-102.661,97.526l-50.39,48.235h-43a11.932,11.932,0,1,0,0,23.864h42.789l46.144,44.171a71.287,71.287,0,0,0,106.992,91.109l19.285,19.76A58.348,58.348,0,1,0,913.5,613.878Zm40.424-160.315a47.752,47.752,0,1,1-47.762,47.752A47.807,47.807,0,0,1,953.921,453.563Zm-95.97-94.523A47.754,47.754,0,1,1,826.52,442.7h0a48.379,48.379,0,0,1-6.027-6.335l-.134-.172q-.878-1.117-1.692-2.286h0a47.6,47.6,0,0,1,0-54.233q.811-1.171,1.69-2.284l.138-.178a48.174,48.174,0,0,1,6.025-6.331h0A47.555,47.555,0,0,1,857.952,359.04Zm95.8-100.01A47.752,47.752,0,1,1,906,306.782,47.805,47.805,0,0,1,953.751,259.03ZM855.3,146.84A47.752,47.752,0,1,1,826.431,232.6h0q-1.117-.846-2.174-1.762c-.085-.072-.168-.144-.25-.216-.693-.6-1.37-1.219-2.026-1.86l-.029-.028A48.191,48.191,0,0,1,818,224.371,47.711,47.711,0,0,1,855.3,146.84ZM687.418,306.614A58.315,58.315,0,0,1,782.2,261.047h0q2.3,1.842,4.4,3.9l.023.023a58.432,58.432,0,0,1,4,4.327h0a58.231,58.231,0,0,1,2.32,71.643h0q-1.737,2.38-3.7,4.575l-.021.025a58.238,58.238,0,0,1-78.861,7.41h0a58.708,58.708,0,0,1-6.581-5.881l-.068-.072a58.716,58.716,0,0,1-5.616-6.8h0A58.009,58.009,0,0,1,687.418,306.614ZM651.26,409.523,700.905,362a71.16,71.16,0,0,0,93.872-3.625l15.923,14.2a58.182,58.182,0,0,0,0,68.436l-13.361,11.911a71.188,71.188,0,0,0-102.256-1.448Zm35.9,92.345a58.011,58.011,0,0,1,6.687-27.084h0q1.04-1.976,2.223-3.86l.055-.087a58.574,58.574,0,0,1,5.118-6.931c.115-.134.229-.265.343-.4.92-1.054,1.871-2.083,2.865-3.067a58.226,58.226,0,0,1,83.208,1.109q1.015,1.063,1.977,2.172l.023.025q.948,1.1,1.843,2.244l.038.049q.891,1.139,1.724,2.322l.036.053q.846,1.2,1.629,2.448h0a58.222,58.222,0,0,1-4.456,68.184,58.8,58.8,0,0,1-3.981,4.337l-.028.025q-2.093,2.058-4.388,3.909a58.311,58.311,0,0,1-94.918-45.452Zm120.224,112.01a47.748,47.748,0,1,1,47.749,47.751A47.794,47.794,0,0,1,807.386,613.878Z" transform="translate(53.539 0)" fill="#d7298f"/>
    <g id="Group_43" data-name="Group 43" transform="translate(973.52 272.673)">
      <path id="Path_96" data-name="Path 96" d="M808.679,223.008,787.471,201.8a4.243,4.243,0,0,0-7.054,1.743,19.7,19.7,0,0,1-5.08,8.28c-3.283,3.281-7.559,5.767-12.082,8.394-4.8,2.783-9.763,5.667-13.828,9.731a28.035,28.035,0,0,0-7.186,11.773,4.247,4.247,0,0,0,1.052,4.254L764.5,267.184a4.241,4.241,0,0,0,7.054-1.748,19.709,19.709,0,0,1,5.084-8.28c3.281-3.281,7.555-5.762,12.083-8.388,4.8-2.787,9.76-5.671,13.824-9.735a28.034,28.034,0,0,0,7.188-11.773A4.251,4.251,0,0,0,808.679,223.008ZM767.5,264.183c-7.024-7.024-14.184-14.187-21.209-21.209,6.027-19.514,32.152-18.662,38.176-38.176l21.213,21.209C799.653,245.517,773.528,244.669,767.5,264.183Zm16.038-32.025a5.67,5.67,0,0,0-2.087-1.169,6.073,6.073,0,0,0-2.1-.223,7.509,7.509,0,0,0-2.121.486c-.713.278-1.43.579-2.151.929-1.139-1.309-2.278-2.6-3.417-3.8a2.4,2.4,0,0,1,1.491-.717,4.792,4.792,0,0,1,1.383.14c.448.112.857.208,1.234.282a1.141,1.141,0,0,0,1-.252,1.408,1.408,0,0,0,.5-1.022,1.693,1.693,0,0,0-.486-1.222,2.742,2.742,0,0,0-1.633-.94,5.04,5.04,0,0,0-1.972.045,6.658,6.658,0,0,0-1.913.761,7.462,7.462,0,0,0-1.451,1.077c-.138-.131-.276-.261-.414-.39a.8.8,0,0,0-.573-.212.74.74,0,0,0-.579.282.812.812,0,0,0,.074,1.139c.138.117.276.231.413.352a9.745,9.745,0,0,0-1.343,2.142,7.163,7.163,0,0,0-.647,2.261,4.49,4.49,0,0,0,.223,2.051,3.9,3.9,0,0,0,1.26,1.682,4.876,4.876,0,0,0,3.538,1.1,10.626,10.626,0,0,0,4.4-1.334c1.251,1.446,2.507,2.882,3.76,4.216a3.325,3.325,0,0,1-1.4.787,2.195,2.195,0,0,1-1.1-.021,3.519,3.519,0,0,1-.921-.443,6.463,6.463,0,0,0-.838-.5,1.956,1.956,0,0,0-.844-.216,1.452,1.452,0,0,0-.935.426,1.366,1.366,0,0,0-.522,1.052,1.842,1.842,0,0,0,.539,1.2,4.344,4.344,0,0,0,1.4,1.016,5.231,5.231,0,0,0,1.911.486,5.3,5.3,0,0,0,2.229-.348,6.462,6.462,0,0,0,2.333-1.574c.369.361.742.7,1.114,1.035a.812.812,0,0,0,1.151-.112.819.819,0,0,0,.2-.621.723.723,0,0,0-.265-.517q-.56-.449-1.118-.944a11.55,11.55,0,0,0,1.521-2.411,7.385,7.385,0,0,0,.674-2.333,4.167,4.167,0,0,0-.252-2A4.062,4.062,0,0,0,783.541,232.158ZM771.683,233.6a2.06,2.06,0,0,1-1.582-.617,1.556,1.556,0,0,1-.414-.683,2.13,2.13,0,0,1-.083-.887,2.826,2.826,0,0,1,.291-.986,4.038,4.038,0,0,1,.687-.995c1.075,1.069,2.149,2.242,3.224,3.455A5.035,5.035,0,0,1,771.683,233.6Zm10,4.246a4.475,4.475,0,0,1-.666.94c-1.19-1.2-2.377-2.52-3.563-3.873.3-.136.621-.278.965-.422a4.726,4.726,0,0,1,1.031-.3,2.725,2.725,0,0,1,1.048.045,2.153,2.153,0,0,1,.973.568,1.956,1.956,0,0,1,.564.944,2.574,2.574,0,0,1,.03,1.035A3.417,3.417,0,0,1,781.687,237.841Zm-8.422,9.756a1.06,1.06,0,0,1,1.417,1.574,1.076,1.076,0,0,1-.108.087l0,0a33.626,33.626,0,0,0-3.635,3.128,28.781,28.781,0,0,0-2.887,3.351L766.7,257.6a1,1,0,0,1-.157.212,1.064,1.064,0,0,1-1.646-1.33l0,0,1.45-1.981a31.015,31.015,0,0,1,3.1-3.6,38.074,38.074,0,0,1,3.818-3.294Zm7.765-30.678a28.636,28.636,0,0,0,2.884-3.353l1.409-1.93a1.149,1.149,0,0,1,.187-.261,1.068,1.068,0,0,1,1.565,1.451l0,0-1.451,1.989a31.183,31.183,0,0,1-3.1,3.6,38.612,38.612,0,0,1-3.816,3.294l-.008,0a1.071,1.071,0,0,1-1.483-1.546,1.013,1.013,0,0,1,.248-.182A35.171,35.171,0,0,0,781.03,216.919Z" transform="matrix(0.259, -0.966, 0.966, 0.259, -393.407, 722.789)" fill="#d7298f"/>
    </g>
    <g id="Group_44" data-name="Group 44" transform="translate(874.558 160.04)">
      <path id="Path_97" data-name="Path 97" d="M757.957,190.574H752.25c-.1-.507-.212-1-.339-1.5l10.178-5.088a2.121,2.121,0,0,0-1.9-3.794l-9.709,4.853a23.3,23.3,0,0,0-44.08,5.527h-5.707a5.308,5.308,0,0,0-5.3,5.3,4.247,4.247,0,0,0,1.071,2.819l7.413,8.339V208.6a5.308,5.308,0,0,0,5.3,5.3h40.3a5.307,5.307,0,0,0,5.3-5.3v-1.567l7.41-8.339a4.237,4.237,0,0,0,1.073-2.819A5.307,5.307,0,0,0,757.957,190.574Zm-7.849,0h-1.192l1.056-.53C750.012,190.222,750.069,190.394,750.107,190.574Zm-20.782-16.967A21.218,21.218,0,0,1,748.587,186l-1.89.944a19.071,19.071,0,0,0-35.972,3.635h-2.18A21.243,21.243,0,0,1,729.325,173.607Zm9.705,16.967a10.583,10.583,0,0,0-19.41,0h-2.278a12.71,12.71,0,0,1,23.665-.791Zm-9.705-2.121a6.329,6.329,0,0,0-4.708,2.121h-2.6a8.408,8.408,0,0,1,14.607,0h-2.6A6.314,6.314,0,0,0,729.325,188.453Zm0-8.483a14.865,14.865,0,0,0-14.22,10.6h-2.189a16.942,16.942,0,0,1,31.881-2.685l-1.894.946A14.87,14.87,0,0,0,729.325,179.97Zm21.209,25.451V208.6a1.062,1.062,0,0,1-1.06,1.06h-40.3a1.061,1.061,0,0,1-1.06-1.06v-3.181l-8.484-9.544a1.061,1.061,0,0,1,1.06-1.06h57.264a1.062,1.062,0,0,1,1.06,1.06Zm-38.224-34.545c-.015-.03-.025-.057-.038-.089-1.1-2.657-.006-5.264.982-7.616.935-2.231,1.765-4.208.908-6.136l-.011-.025-.007-.019,0-.013a1,1,0,0,1-.068-.358,1.038,1.038,0,0,1,2.006-.375c1.183,2.7.108,5.347-.895,7.735-.929,2.21-1.684,4.263-.889,6.134a.075.075,0,0,1,0,.042,1.006,1.006,0,0,1,.038.265,1.067,1.067,0,0,1-1.065,1.067,1.056,1.056,0,0,1-.939-.573h0Zm25.826-.31c-.013-.028-.023-.057-.034-.085-1.1-2.657-.008-5.266.978-7.618.938-2.231,1.765-4.208.908-6.136l-.009-.025-.009-.019v-.013a1.061,1.061,0,0,1-.07-.358,1.039,1.039,0,0,1,2.008-.375c1.184,2.7.108,5.347-.9,7.735-.929,2.21-1.682,4.263-.891,6.134a.049.049,0,0,1,0,.042,1.091,1.091,0,0,1,.038.265,1.064,1.064,0,0,1-2.008.492h0A.139.139,0,0,0,738.135,170.566Zm-10.891-9.234c-.015-.03-.025-.057-.04-.087-1.1-2.657-.008-5.266.98-7.618.935-2.231,1.764-4.208.908-6.136l-.008-.025-.006-.019,0-.013a1.008,1.008,0,0,1-.068-.358,1.039,1.039,0,0,1,2.008-.373c1.184,2.7.108,5.347-.895,7.735-.929,2.21-1.684,4.263-.889,6.134a.072.072,0,0,1,0,.042,1.007,1.007,0,0,1,.038.265,1.061,1.061,0,0,1-2,.492h0Z" transform="translate(-146.036 763.26) rotate(-90)" fill="#d7298f"/>
    </g>
    <g id="Group_45" data-name="Group 45" transform="translate(767.974 535.806) rotate(-90)">
      <path id="Path_98" data-name="Path 98" d="M709.507,320.958c-10.458-8.8-29.45-25.207-29.637-25.374l-2.021-1.737-2.011,1.737c-.193.163-19.192,16.56-29.8,25.444a6.3,6.3,0,0,0-2.123,4.655,6.171,6.171,0,0,0,6.17,6.17h3.086v18.511a6.173,6.173,0,0,0,6.17,6.17h37.018a6.173,6.173,0,0,0,6.17-6.17V331.853h3.086a6.171,6.171,0,0,0,6.17-6.17A6.062,6.062,0,0,0,709.507,320.958Zm-25.489,29.406H671.679V334.939h12.339Zm12.339-24.681.006,24.681H687.1V331.853H668.594v18.511H659.34V325.683h-9.258c8.528-7.132,22.566-19.209,27.766-23.692,5.2,4.483,19.232,16.558,27.764,23.7Z" transform="translate(-643.915 -293.847)" fill="#d7298f"/>
    </g>
    <g id="Group_46" data-name="Group 46" transform="translate(881.93 443.356) rotate(-90)">
      <path id="Path_99" data-name="Path 99" d="M764.735,263.76a6.336,6.336,0,0,0-4.933-6.2l-27.6-6.369a6.4,6.4,0,0,0-1.4-.155,6.487,6.487,0,0,0-1.431.161L701.8,257.559a6.365,6.365,0,0,0,0,12.4l5.673,1.309v17.94c0,5.629,6.443,10.6,23.33,10.6s23.33-4.976,23.33-10.6V271.27l5.671-1.309A6.336,6.336,0,0,0,764.735,263.76Zm-14.846,25.451c0,2.344-6.363,6.363-19.088,6.363s-19.088-4.019-19.088-6.363V272.25l17.684,4.081a6.431,6.431,0,0,0,2.833-.006l17.658-4.074Zm-18.611-17.02a2.174,2.174,0,0,1-.954,0l-27.571-6.363a2.123,2.123,0,0,1,0-4.136l27.571-6.363a2.174,2.174,0,0,1,.954,0l27.571,6.363a2.123,2.123,0,0,1,0,4.136Zm27.094,2.174a2.121,2.121,0,1,1,4.242,0v19.088a2.121,2.121,0,1,1-4.242,0Zm2.121,23.33c2.341,0,4.242,6.142,4.242,8.484a4.242,4.242,0,0,1-8.484,0C756.251,303.836,758.15,297.694,760.493,297.694Z" transform="translate(-696.867 -251.035)" fill="#d7298f"/>
    </g>
    <g id="Group_47" data-name="Group 47" transform="translate(874.741 642.972) rotate(-90)">
      <path id="Path_100" data-name="Path 100" d="M755.229,395.129,746.5,384.222h2.969a3.231,3.231,0,0,0,2.647-5.086L729.5,346.818a3.238,3.238,0,0,0-4.5-.8,3.172,3.172,0,0,0-.713.747c-.083.049-22.706,32.367-22.706,32.367a3.233,3.233,0,0,0,2.651,5.086H707.2l-8.725,10.908a3.231,3.231,0,0,0,2.524,5.251h22.623v9.695a3.232,3.232,0,1,0,6.464,0v-9.695h22.623a3.232,3.232,0,0,0,2.524-5.251Zm-25.147-1.213V377.757a3.232,3.232,0,1,0-6.464,0v16.159h-15.9l8.727-10.908a3.23,3.23,0,0,0-2.524-5.251h-3.491l16.418-23.451,16.418,23.451h-3.491a3.229,3.229,0,0,0-2.52,5.251l8.725,10.908Z" transform="translate(-697.762 -345.44)" fill="#d7298f"/>
    </g>
    <g id="Group_48" data-name="Group 48" transform="translate(980.254 535.804) rotate(-90)">
      <path id="Path_101" data-name="Path 101" d="M794.893,313.536a2.124,2.124,0,0,0-1.765-.944h-2.121a2.119,2.119,0,0,0-2.121,2.121v12.725a2.119,2.119,0,0,0,2.121,2.121h8.483a2.119,2.119,0,0,0,2.121-2.121v-3.181a2.131,2.131,0,0,0-.356-1.177Zm4.6,13.9h-8.483V314.713h2.121l6.363,9.544Zm9.536-5.65-8.483-12.725a6.352,6.352,0,0,0-5.294-2.833h-8.483v-4.242a6.37,6.37,0,0,0-6.363-6.363H748.59a6.37,6.37,0,0,0-6.363,6.363v23.33a6.37,6.37,0,0,0,6.363,6.363h0v6.363a6.37,6.37,0,0,0,6.363,6.363h2.422a8.443,8.443,0,0,0,16.365,0h11.2a8.442,8.442,0,0,0,16.365,0h2.426a6.37,6.37,0,0,0,6.363-6.363V325.317A6.335,6.335,0,0,0,809.026,321.788Zm-60.436,5.65a2.12,2.12,0,0,1-2.121-2.121v-23.33a2.12,2.12,0,0,1,2.121-2.121H780.4a2.119,2.119,0,0,1,2.121,2.121v23.33a2.119,2.119,0,0,1-2.121,2.121Zm16.969,19.088a4.242,4.242,0,1,1,4.242-4.242A4.242,4.242,0,0,1,765.559,346.526Zm27.569,0a4.242,4.242,0,1,1,4.242-4.242A4.242,4.242,0,0,1,793.128,346.526Zm12.725-8.483a2.119,2.119,0,0,1-2.121,2.121h-2.424a8.442,8.442,0,0,0-16.365,0h-11.2a8.442,8.442,0,0,0-16.365,0h-2.424a2.12,2.12,0,0,1-2.121-2.121V331.68H780.4a6.37,6.37,0,0,0,6.363-6.363V310.471h8.483a2.124,2.124,0,0,1,1.765.944L805.5,324.14a2.132,2.132,0,0,1,.356,1.177Z" transform="translate(-742.227 -295.625)" fill="#d7298f"/>
    </g>
    <g id="Group_49" data-name="Group 49" transform="translate(769.624 340.416) rotate(-90)">
      <path id="Path_102" data-name="Path 102" d="M703.3,203.913H652.4a8.495,8.495,0,0,0-8.483,8.484V243.5a8.495,8.495,0,0,0,8.483,8.484h16.967v5.654h-8.483a2.828,2.828,0,0,0,0,5.656h33.934a2.828,2.828,0,1,0,0-5.656h-8.484v-5.654H703.3a8.493,8.493,0,0,0,8.484-8.484V212.4A8.493,8.493,0,0,0,703.3,203.913ZM683.5,257.641H672.194v-5.654H683.5ZM706.128,243.5a2.834,2.834,0,0,1-2.829,2.827H652.4a2.833,2.833,0,0,1-2.827-2.827V212.4a2.832,2.832,0,0,1,2.827-2.827h50.9a2.832,2.832,0,0,1,2.829,2.827Z" transform="translate(-643.914 -203.913)" fill="#d7298f"/>
      <path id="Path_103" data-name="Path 103" d="M695.988,207.913H650.743a2.836,2.836,0,0,0-2.829,2.827v22.623a2.836,2.836,0,0,0,2.829,2.827h45.245a2.836,2.836,0,0,0,2.827-2.827V210.74A2.836,2.836,0,0,0,695.988,207.913Zm0,25.45H650.743V210.74h45.245Z" transform="translate(-639.43 -199.429)" fill="#d7298f"/>
    </g>
  </g>
</svg>
