<svg xmlns="http://www.w3.org/2000/svg" xmlns:xlink="http://www.w3.org/1999/xlink" width="89" height="89" viewBox="0 0 89 89">
  <defs>
    <clipPath id="clip-path">
      <rect width="89" height="89" fill="none"/>
    </clipPath>
  </defs>
  <g id="proj_vp" clip-path="url(#clip-path)">
    <g id="Ellipse_1" data-name="Ellipse 1" fill="none" stroke="#d82591" stroke-width="5">
      <circle cx="44.5" cy="44.5" r="44.5" stroke="none"/>
      <circle cx="44.5" cy="44.5" r="42" fill="none"/>
    </g>
    <path id="film" d="M52.795,43.063q-.334-.577-2.142-.352a4.428,4.428,0,0,1-4.835-2.177,5.006,5.006,0,0,1-.59-3.968,20.352,20.352,0,0,1,3.262-5.695l1.13-1.573q5.033-6.952,2.064-12.1c-2.014-3.491-7.832-3.2-12.014-1.4a21.12,21.12,0,1,0,.778,1.826,16.18,16.18,0,0,1,4.692-.933c2.092-.077,3.986.362,4.737,1.664q2.514,4.357-2.428,10.291l-.675.811Q40.993,36.395,44,41.61a6.776,6.776,0,0,0,3.872,3.006,5.3,5.3,0,0,0,4.5-.167.905.905,0,0,0,.419-1.385ZM11.313,29.344a4.351,4.351,0,1,1,4.351-4.351A4.35,4.35,0,0,1,11.313,29.344Zm9.572,9.572a4.351,4.351,0,1,1,4.351-4.351A4.35,4.35,0,0,1,20.885,38.916ZM19.179,24.993a1.741,1.741,0,1,1,1.742,1.74A1.743,1.743,0,0,1,19.179,24.993Zm1.706-5.221a4.351,4.351,0,1,1,4.351-4.351A4.35,4.35,0,0,1,20.885,19.772Zm9.572,9.572a4.351,4.351,0,1,1,4.351-4.351A4.35,4.35,0,0,1,30.457,29.344Z" transform="translate(18.031 19.208)" fill="#d82591"/>
  </g>
</svg>
