<svg xmlns="http://www.w3.org/2000/svg" xmlns:xlink="http://www.w3.org/1999/xlink" width="89" height="89" viewBox="0 0 89 89">
  <defs>
    <clipPath id="clip-path">
      <rect width="89" height="89" fill="none"/>
    </clipPath>
  </defs>
  <g id="targetaud5" clip-path="url(#clip-path)">
    <g id="Ellipse_1" data-name="Ellipse 1" fill="none" stroke="#d82591" stroke-width="5">
      <circle cx="44.5" cy="44.5" r="44.5" stroke="none"/>
      <circle cx="44.5" cy="44.5" r="42" fill="none"/>
    </g>
    <path id="earth" d="M25,0A25,25,0,1,0,50,25,25,25,0,0,0,25,0Zm0,46.875a21.81,21.81,0,0,1-8.653-1.78L27.731,32.288a1.559,1.559,0,0,0,.4-1.037V26.563A1.563,1.563,0,0,0,26.564,25c-5.517,0-11.338-5.736-11.4-5.792a1.561,1.561,0,0,0-1.1-.458H7.814a1.563,1.563,0,0,0-1.562,1.563v9.375a1.56,1.56,0,0,0,.864,1.4L12.5,33.778v9.173A21.887,21.887,0,0,1,5.233,15.625h5.706a1.558,1.558,0,0,0,1.1-.458l6.25-6.25a1.561,1.561,0,0,0,.458-1.1V4.033a21.94,21.94,0,0,1,15.834,1.3c-.2.17-.4.35-.587.539a9.377,9.377,0,0,0,6.623,16.006c.155,0,.309,0,.464-.011.675,2.53,1.892,9.114-.411,18.18a1.463,1.463,0,0,0-.041.255A21.806,21.806,0,0,1,25,46.875Z" transform="translate(20 20)" fill="#d82591"/>
  </g>
</svg>
