<svg xmlns="http://www.w3.org/2000/svg" xmlns:xlink="http://www.w3.org/1999/xlink" width="89" height="89" viewBox="0 0 89 89">
  <defs>
    <clipPath id="clip-path">
      <rect width="89" height="89" fill="none"/>
    </clipPath>
  </defs>
  <g id="targetaud1" clip-path="url(#clip-path)">
    <g id="Ellipse_1" data-name="Ellipse 1" fill="none" stroke="#d82591" stroke-width="5">
      <circle cx="44.5" cy="44.5" r="44.5" stroke="none"/>
      <circle cx="44.5" cy="44.5" r="42" fill="none"/>
    </g>
    <g id="users" transform="translate(20 23)">
      <path id="Path_30" data-name="Path 30" d="M29.5,30.3V28.082c2.96-1.668,5.375-5.828,5.375-9.987,0-6.68,0-12.094-8.062-12.094S18.75,11.415,18.75,18.095c0,4.16,2.415,8.319,5.375,9.987V30.3C15.009,31.043,8,35.522,8,40.937H45.625C45.625,35.522,38.616,31.042,29.5,30.3Z" transform="translate(2.75 2.063)" fill="#d82591"/>
      <path id="Path_31" data-name="Path 31" d="M13.74,33.4a25.505,25.505,0,0,1,8.389-3.377,15.224,15.224,0,0,1-1.7-2.478,15.4,15.4,0,0,1-1.952-7.387c0-3.613,0-7.025,1.285-9.816a8.751,8.751,0,0,1,6.686-5.018C25.737,2.111,23.846,0,18.812,0,10.75,0,10.75,5.414,10.75,12.094c0,4.16,2.415,8.319,5.375,9.987V24.3C7.009,25.042,0,29.521,0,34.936H11.716A17.238,17.238,0,0,1,13.74,33.4Z" fill="#d82591"/>
    </g>
  </g>
</svg>
